<svg width="131" height="30" viewBox="0 0 131 30" fill="none" xmlns="http://www.w3.org/2000/svg">
<path d="M24.71 0.939999V22H19.58V9.37L14.87 22H10.73L5.99 9.34V22H0.86V0.939999H6.92L12.83 15.52L18.68 0.939999H24.71ZM45.4991 5.26L34.9991 29.95H29.4791L33.3191 21.43L26.5091 5.26H32.2391L36.1091 15.73L39.9491 5.26H45.4991ZM90.6732 13.36C90.6732 13.84 90.6432 14.34 90.5832 14.86H78.9732C79.0532 15.9 79.3832 16.7 79.9632 17.26C80.5632 17.8 81.2932 18.07 82.1532 18.07C83.4332 18.07 84.3232 17.53 84.8232 16.45H90.2832C90.0032 17.55 89.4932 18.54 88.7532 19.42C88.0332 20.3 87.1232 20.99 86.0232 21.49C84.9232 21.99 83.6932 22.24 82.3332 22.24C80.6932 22.24 79.2332 21.89 77.9532 21.19C76.6732 20.49 75.6732 19.49 74.9532 18.19C74.2332 16.89 73.8732 15.37 73.8732 13.63C73.8732 11.89 74.2232 10.37 74.9232 9.07C75.6432 7.77 76.6432 6.77 77.9232 6.07C79.2032 5.37 80.6732 5.02 82.3332 5.02C83.9532 5.02 85.3932 5.36 86.6532 6.04C87.9132 6.72 88.8932 7.69 89.5932 8.95C90.3132 10.21 90.6732 11.68 90.6732 13.36ZM85.4232 12.01C85.4232 11.13 85.1232 10.43 84.5232 9.91C83.9232 9.39 83.1732 9.13 82.2732 9.13C81.4132 9.13 80.6832 9.38 80.0832 9.88C79.5032 10.38 79.1432 11.09 79.0032 12.01H85.4232ZM103.58 5.08C105.54 5.08 107.1 5.72 108.26 7C109.44 8.26 110.03 10 110.03 12.22V22H104.93V12.91C104.93 11.79 104.64 10.92 104.06 10.3C103.48 9.68 102.7 9.37 101.72 9.37C100.74 9.37 99.9595 9.68 99.3795 10.3C98.7995 10.92 98.5095 11.79 98.5095 12.91V22H93.3795V5.26H98.5095V7.48C99.0295 6.74 99.7295 6.16 100.61 5.74C101.49 5.3 102.48 5.08 103.58 5.08ZM130.124 5.26V22H124.994V19.72C124.474 20.46 123.764 21.06 122.864 21.52C121.984 21.96 121.004 22.18 119.924 22.18C118.644 22.18 117.514 21.9 116.534 21.34C115.554 20.76 114.794 19.93 114.254 18.85C113.714 17.77 113.444 16.5 113.444 15.04V5.26H118.544V14.35C118.544 15.47 118.834 16.34 119.414 16.96C119.994 17.58 120.774 17.89 121.754 17.89C122.754 17.89 123.544 17.58 124.124 16.96C124.704 16.34 124.994 15.47 124.994 14.35V5.26H130.124Z" fill="black"/>
<path d="M71.2041 0.939999V22H66.0741V9.37L61.3641 22H57.2241L52.4841 9.34V22H47.3541V0.939999H53.4141L59.3241 15.52L65.1741 0.939999H71.2041Z" fill="#DD4F50"/>
</svg>
